<svg id="Layer_1" data-name="Layer 1" xmlns="http://www.w3.org/2000/svg" viewBox="0 0 1927 362"><defs><style>.cls-1{fill:#78cfff;}.cls-2{fill:none;stroke:#78cfff;stroke-miterlimit:10;stroke-width:5px;}</style></defs><title>fiveArtboard 1 copy</title><polygon class="cls-1" points="1746.5 21.13 1786.1 143 1914.23 143 1810.57 218.32 1850.16 340.18 1746.5 264.87 1642.84 340.18 1682.43 218.32 1578.77 143 1706.9 143 1746.5 21.13"/><polygon class="cls-2" points="1746.5 21.13 1786.1 143 1914.23 143 1810.57 218.32 1850.16 340.18 1746.5 264.87 1642.84 340.18 1682.43 218.32 1578.77 143 1706.9 143 1746.5 21.13"/><polygon class="cls-1" points="1355 21.13 1394.6 143 1522.73 143 1419.07 218.32 1458.66 340.18 1355 264.87 1251.34 340.18 1290.93 218.32 1187.27 143 1315.4 143 1355 21.13"/><polygon class="cls-2" points="1355 21.13 1394.6 143 1522.73 143 1419.07 218.32 1458.66 340.18 1355 264.87 1251.34 340.18 1290.93 218.32 1187.27 143 1315.4 143 1355 21.13"/><polygon class="cls-1" points="963.5 21.13 1003.1 143 1131.23 143 1027.57 218.32 1067.16 340.18 963.5 264.87 859.84 340.18 899.43 218.32 795.77 143 923.9 143 963.5 21.13"/><polygon class="cls-2" points="963.5 21.13 1003.1 143 1131.23 143 1027.57 218.32 1067.16 340.18 963.5 264.87 859.84 340.18 899.43 218.32 795.77 143 923.9 143 963.5 21.13"/><polygon class="cls-1" points="572 21.13 611.6 143 739.73 143 636.07 218.32 675.66 340.18 572 264.87 468.33 340.18 507.93 218.32 404.27 143 532.4 143 572 21.13"/><polygon class="cls-2" points="572 21.13 611.6 143 739.73 143 636.07 218.32 675.66 340.18 572 264.87 468.33 340.18 507.93 218.32 404.27 143 532.4 143 572 21.13"/><polygon class="cls-1" points="180.5 21.13 220.1 143 348.23 143 244.57 218.32 284.17 340.18 180.5 264.87 76.83 340.18 116.43 218.32 12.77 143 140.9 143 180.5 21.13"/><polygon class="cls-2" points="180.5 21.13 220.1 143 348.23 143 244.57 218.32 284.17 340.18 180.5 264.87 76.83 340.18 116.43 218.32 12.77 143 140.9 143 180.5 21.13"/></svg>