<?xml version="1.0"?><svg xmlns="http://www.w3.org/2000/svg" xmlns:xlink="http://www.w3.org/1999/xlink" id="Layer_1" data-name="Layer 1" viewBox="0 0 556.67 100"><defs><style>.cls-1{fill:none;}.cls-2{clip-path:url(#clip-path);}</style><clipPath id="clip-path"><path class="cls-1" d="M52.7.41l16,32.52,35.89,5.21-26,25.32L84.8,99.2,52.7,82.33,20.6,99.2l6.13-35.74L.76,38.14l35.89-5.21Zm96.54,32.52-35.89,5.21,26,25.32L133.19,99.2l32.1-16.87,32.1,16.87-6.13-35.74,26-25.32-35.89-5.21L165.29.41Zm112.59,0-35.89,5.21,26,25.32L245.78,99.2l32.1-16.87L310,99.2l-6.13-35.74,26-25.32-35.89-5.21L277.88.41Zm112.59,0-35.89,5.21,26,25.32L358.37,99.2l32.1-16.87,32.1,16.87-6.13-35.74,26-25.32-35.89-5.21L390.47.41Zm112.59,0-35.89,5.21,26,25.32L471,99.2l32.1-16.87,32.1,16.87L529,63.46l26-25.32-35.89-5.21L503.06.41Z"/></clipPath></defs><title>starzArtboard 1</title><g class="cls-2"><rect id='progress' width="557" height="100"/></g></svg>
