<?xml version="1.0" encoding="utf-8"?>
<!-- Generator: Adobe Illustrator 22.0.1, SVG Export Plug-In . SVG Version: 6.00 Build 0)  -->
<svg version="1.1" id="Layer_1" xmlns="http://www.w3.org/2000/svg" xmlns:xlink="http://www.w3.org/1999/xlink" x="0px" y="0px"
	 viewBox="0 0 336 318.8" style="enable-background:new 0 0 336 318.8;" xml:space="preserve">
<style type="text/css">
	.st0{fill:#FFFFFF;}
	.st1{clip-path:url(#SVGID_5_);fill:#00C3FF;}
</style>
<g>
	<g>
		<polygon id="SVGID_1_" class="st0" points="167.6,-1.1 207.2,120.8 335.3,120.8 231.6,196.1 271.2,318 167.5,242.7 63.9,317.9 
			103.5,196 -0.2,120.8 128,120.8 		"/>
	</g>
	<g>
		<defs>
			<polygon id="SVGID_2_" points="167.6,-1.1 207.2,120.8 335.3,120.8 231.6,196.1 271.2,318 167.5,242.7 63.9,317.9 103.5,196 
				-0.2,120.8 128,120.8 			"/>
		</defs>
		<clipPath id="SVGID_3_">
			<use xlink:href="#SVGID_2_"  style="overflow:visible;"/>
		</clipPath>
	</g>
	<g>
		<defs>
			<polygon id="SVGID_4_" points="167.6,-1.1 207.2,120.8 335.3,120.8 231.6,196.1 271.2,318 167.5,242.7 63.9,317.9 103.5,196 
				-0.2,120.8 128,120.8 			"/>
		</defs>
		<clipPath id="SVGID_5_">
			<use xlink:href="#SVGID_4_"  style="overflow:visible;"/>
		</clipPath>
		<rect y="-1.1" class="st1" width="335.3" height="319.1"/>
	</g>
</g>
</svg>
